<svg width="28" height="26" viewBox="0 0 28 26" fill="none" xmlns="http://www.w3.org/2000/svg">
<path d="M27.9999 9.28571H23.2454L18.2502 0.450683C18.0025 0.0118078 17.465 -0.131483 17.0497 0.132405C16.6353 0.396293 16.5011 0.966644 16.7498 1.40646L21.2046 9.28571H6.79543L11.2502 1.40639C11.4989 0.966581 11.3647 0.39623 10.9503 0.132342C10.5342 -0.131546 9.99842 0.0117453 9.74975 0.450621L4.75464 9.28565H0V11.1428H1.89911L4.12206 23.7266C4.35446 25.0442 5.43966 26 6.70265 26H21.2974C22.5603 26 23.6455 25.0442 23.8771 23.7275L26.1008 11.1428H28L27.9999 9.28571ZM22.1569 23.3857C22.08 23.8246 21.7186 24.1429 21.2973 24.1429H6.70265C6.28138 24.1429 5.91996 23.8246 5.84219 23.3848L3.67904 11.1428H24.321L22.1569 23.3857Z" fill="white"/>
</svg>
